<?xml version="1.0" encoding="utf-8"?>
<!-- Generator: Adobe Illustrator 23.0.1, SVG Export Plug-In . SVG Version: 6.00 Build 0)  -->
<svg version="1.1" id="Layer_1" xmlns="http://www.w3.org/2000/svg" xmlns:xlink="http://www.w3.org/1999/xlink" x="0px" y="0px"
	 viewBox="0 0 1008 612" style="enable-background:new 0 0 1008 612;" xml:space="preserve">
<style type="text/css">
	.st0{fill:#808285;}
	.st1{fill:#2E3192;}
	.st2{fill:#FDCC9A;}
	.st3{fill:#603913;}
	.st4{fill:none;}
	.st5{fill:#FFFFFF;}
	.st6{fill:#5ABA47;}
	.st7{fill:#155D41;}
	.st8{font-family:'Gadugi-Bold';}
	.st9{font-size:116.2862px;}
</style>
<g id="Layer_3">
	<rect class="st0" width="1008" height="612"/>
</g>
<g>
	<path class="st1" d="M573.2,363.7v152.4c-27.7,7-55.5,14-83.3,21v2.1h-20.8v-0.7c-2.8-0.2-5.7-0.5-8.6-0.7
		c-32.7-3.2-61.7-10.5-86.6-19.4V368l59-27.4l0.3-0.1l4.3-2l0.3-0.1l2-0.9h95.2c13.5,7.1,23.8,14.5,31.3,20.5
		C568.7,359.7,571,361.7,573.2,363.7z"/>
	<path class="st1" d="M618,474.6c-2.1,3-6.6,7.9-11.8,12.9c-4.3,4.1-9,8.2-13.3,11.3c-0.6,0.4-1.2,0.9-1.8,1.3
		c-1,0.7-1.9,1.3-2.9,1.9c-4.3,2.7-8.1,4.6-10.5,5.8c-1.5,0.8-2.4,1.1-2.4,1.1c-0.9,0.4-1.6,0.7-2,0.9L562,467.7l-16.1-60.1
		l-1.5-5.5l-4.6-17.2l-12.7-47.4c12.3,5.2,21.8,10.6,28.6,15c2.2,1.4,4.2,2.8,6.3,4.2c4.6,3.2,8.9,6.6,13,10.2
		c1.1,0.9,2.1,1.8,3.2,2.8C618.1,405.7,633.2,453.5,618,474.6z"/>
	<polygon class="st2" points="420.8,160.3 422.8,245.7 468.6,234.1 	"/>
	<path class="st2" d="M546.8,268.5c0,33.5-30.3,60.7-67.7,60.7c-16.9,0-30-5.8-35.2-8.8c-17.2-9.9-32.7-29.5-32.5-51.9
		c0.3-31.8,32.1-60.7,67.7-60.7C516.4,207.8,546.8,235,546.8,268.5z"/>
	<path class="st1" d="M434.3,337.9c-31.4,6.7-52.1,19.4-63.7,27.9c-47.3,34.9-67.1,93.7-52.3,117.5c3.2,5.2,13.1,16.7,21.2,23.2
		c7.3,6,14.7,9.7,14.7,9.7c0.7,0.4,1.3,0.7,1.7,0.8L434.3,337.9z"/>
	<path class="st3" d="M561.8,225c-0.8,19.3-7.7,43.2-16.5,43.6c-10.6,0.5-9.5-33.4-35.8-45.1c-19.2-8.5-34.3,3.1-52.6-8.1
		c-14.9-9.1-15.1-23-20.9-22.7c-13.9,0.8-9.5,83.7-25,85.8c-10.9,1.5-32.5-36.8-28.3-74.1c1-8.3,2.6-22.9,14.2-36.6
		c17.3-20.8,45.6-25.9,57.1-27.9c14.3-2.6,51.2-8.5,80,13.2C563.8,175.5,562.3,210.6,561.8,225z"/>
	<path class="st4" d="M591.2,282.2"/>
	<polygon class="st5" points="511.9,427.5 362.9,412.5 373,376.7 	"/>
	<ellipse class="st2" cx="355.5" cy="465" rx="28" ry="37.5"/>
	<polygon class="st5" points="452.6,429.4 576.5,366 590.6,397.1 	"/>
	<path class="st6" d="M591.2,511.5c-6,1.5-12,3-18,4.5c-27.7,7-55.5,14-83.3,21c-2.7,0.7-5.5,1.4-8.2,2.1c-4.1-0.2-8.4-0.4-12.6-0.7
		c-2.8-0.2-5.7-0.5-8.6-0.7c-32.7-3.2-61.7-10.5-86.6-19.4c-5.5-2-10.8-4-15.9-6c-0.9-0.3-1.7-0.7-2.5-1c0.1-2.9,0.2-5.9,0.3-8.8
		c0.8-24.9,1.6-49.9,2.4-74.8c0.4-11.3,0.7-22.6,1.1-33.9c2.8,0.6,5.6,1.3,8.4,1.9c2.1,0.5,4.2,1,6.3,1.4
		c10.4,2.4,20.9,4.8,31.3,7.2c20.6,4.7,41.2,9.4,61.8,14.1c0.7-0.1,1.4-0.2,2.1-0.3c2.4-0.3,4.8-0.7,7.2-1c1.8-0.2,3.6-0.5,5.5-0.8
		c1.5-0.2,3-0.4,4.4-0.6c0.7-0.1,1.4-0.2,2-0.3c18.7-4.6,37.4-9.1,56.1-13.7c9.6-2.4,19.2-4.7,28.8-7c4.9-1.2,9.8-2.4,14.8-3.6
		c0.5-0.1,1-0.3,1.6-0.4c0,1.3,0,2.7,0,4c0,0.8,0,1.6,0,2.4c0.2,13,0.3,26.1,0.5,39.1c0.3,21.2,0.5,42.4,0.9,63.7c0,0.8,0,1.6,0,2.3
		C591.1,505.5,591.1,508.5,591.2,511.5z"/>
	<ellipse class="st2" cx="591.2" cy="469.4" rx="18" ry="33"/>
	<path class="st2" d="M509.3,360.1h-59.6c-6.8,0-12.3-5.5-12.3-12.3v-51c0-6.8,5.5-12.3,12.3-12.3h59.6c6.8,0,12.3,5.5,12.3,12.3v51
		C521.6,354.6,516.1,360.1,509.3,360.1z"/>
	<rect x="469.1" y="415.9" class="st7" width="20.8" height="123.3"/>
	<path d="M363.4,95.3C352,98,351,87,343.6,81c-2.7-2.4-5.6-4.7-8.1-6.8c-5.2-4.2-9-7.3-9-7.3c-0.9-0.7-1.6-1.4-2.2-2.2H324
		c0.3,0.8,0.4,2.4,0.4,4.9c0,0,0,3.6,0,8.1C323,85,322,97,313,95c1-6,3-12,3.4-17.6c0-4.4,0-8.8,0-12.2s0-5.5,0-5.5h10.3
		c0,0,8.5,6.9,16.9,13.9c2.8,2.3,5.6,4.6,8,6.7C355,83,358,86,360,90c3-6,3-12,3-17.9c0-6.2,0-12.5,0-12.5h7.9c0,0,0,2.2,0,5.5
		s0,7.8,0,12.2c-2,3.6,0,8.6-3.7,12.3C365.2,93.1,363.4,95.3,363.4,95.3z"/>
	<path d="M407,96.1c-11,1.9-25-5.1-22.7-18.4c0.1-2.8,0.8-5.4,2.3-7.7s3.7-4.3,6.6-5.9c5.9-3.4,13.9-5.1,24-5.1
		c9.3,0,16.9,1.7,22.6,4.9c2.9,1.7,5,3.6,6.4,5.7C454,89,427,94,414.3,95.8C411.9,96,409.4,96.1,407,96.1z M416.6,62.8
		c-7.1,0-12.9,1.3-17.3,4c-2.2,1.3-3.9,2.9-5,4.7s-1.7,3.7-1.7,5.9C391,85,396,93,405,93c10,0,18-2,27-6c5-3,11-10,6.4-15.7
		c-1-1.8-2.6-3.3-4.7-4.6C429.6,64.1,423.9,62.8,416.6,62.8z"/>
	<path d="M530.3,95.2C520,93,510,99,500,94c6-9,13-17,12.2-28.8c0-3.3,0-5.5,0-5.5h34.4v3.8h-26.4l-1.1,11.8C527,75,536,75,544,75
		c-1,1-1,3-2,4c-8,1-17-2-24,1c-2,1-11,10-4,11c7,2,14,0,21.5,0.2L530.3,95.2z"/>
	<path d="M595.5,63.4c0,0-1.7,0-4.1,0c-7.4,0-22.3,0-22.3,0l-0.7,12.2C577,76,585,76,594,76c-1,1-1,4-2,4c-18-3-32,5-45,16
		c-1,0-3-2-5-1c8-4,14-10,17.8-17.7c1.1-4.4,1.3-8.8,1.3-12.1s0-5.5,0-5.5s19.3,0,29,0c3.2,0,5.4,0,5.4,0L595.5,63.4z"/>
	<path d="M652.4,59.9c-2.4,2.7-4.7,5.5-7,8.3c-3.9,6.7-9.2,12.7-14.4,18.8c-2,2-3.9,4-5.9,6C609,109,598,124,574,120
		c16-10,44-20,39.5-44.2c-1.1-3.1-3.1-6-6-8.8c-2.3-2.5-4.9-4.8-7.5-7c4.7-0.7,8.4,0.7,11.7,3.1c4,4.4,8.4,9.5,10.3,15.5
		c0.6,2,0.9,4.1,0.8,6.4c1.8-1.2,3.5-2.6,5-4.1c4.3-4.4,7.5-9.7,11.5-15.3c1.5-1.9,3.1-3.8,4.8-5.5L652.4,59.9z"/>
	<text transform="matrix(0.8285 0 0 1 447.5508 109.3438)" class="st8 st9">T</text>
</g>
</svg>
