<?xml version="1.0" encoding="utf-8"?>
<!-- Generator: Adobe Illustrator 23.0.1, SVG Export Plug-In . SVG Version: 6.00 Build 0)  -->
<svg version="1.1" xmlns="http://www.w3.org/2000/svg" xmlns:xlink="http://www.w3.org/1999/xlink" x="0px" y="0px"
	 viewBox="0 0 1008 612" style="enable-background:new 0 0 1008 612;" xml:space="preserve">
<style type="text/css">
	.st0{fill:#808285;}
	.st1{fill:#2E3192;}
	.st2{fill:#FDCC9A;}
	.st3{fill:#603913;}
	.st4{fill:none;}
	.st5{fill:#FFFFFF;}
	.st6{fill:#5ABA47;}
	.st7{fill:#155D41;}
	.st8{font-family:'Gadugi-Bold';}
	.st9{font-size:116.2862px;}
</style>
<g id="Layer_3">
	<rect class="st0" width="1008" height="612"/>
</g>
<g id="Layer_1">
	<path class="st1" d="M573.19,363.66v152.42c-27.73,6.99-55.51,14-83.26,21.01v2.08h-20.82v-0.73c-2.84-0.19-5.7-0.45-8.61-0.73
		c-32.69-3.22-61.68-10.55-86.58-19.4V367.95l59.01-27.39l0.31-0.15l4.34-2.01l0.26-0.13l2.03-0.92h95.21
		c13.5,7.12,23.82,14.53,31.26,20.53C568.69,359.74,570.95,361.67,573.19,363.66z"/>
	<path class="st1" d="M618.02,474.65c-2.12,2.96-6.63,7.91-11.85,12.9c-4.27,4.09-9.04,8.23-13.35,11.3
		c-0.62,0.43-1.22,0.86-1.84,1.26c-0.95,0.66-1.93,1.29-2.86,1.86c-4.27,2.66-8.13,4.65-10.47,5.81c-1.48,0.75-2.36,1.14-2.36,1.14
		c-0.88,0.36-1.62,0.66-2.05,0.88l-11.28-42.14l-16.09-60.12l-1.48-5.53l-4.63-17.23l-12.68-47.43
		c12.35,5.21,21.82,10.63,28.61,15.03c2.15,1.37,4.22,2.79,6.27,4.24c4.58,3.24,8.92,6.62,13.02,10.16
		c1.07,0.92,2.12,1.84,3.17,2.79C618.09,405.7,633.18,453.51,618.02,474.65z"/>
	<polygon class="st2" points="420.84,160.3 422.75,245.7 468.63,234.12 	"/>
	<path class="st2" d="M546.76,268.51c0,33.53-30.32,60.71-67.71,60.71c-16.94,0-29.96-5.82-35.17-8.82
		c-17.19-9.92-32.72-29.48-32.54-51.89c0.25-31.82,32.1-60.71,67.71-60.71C516.44,207.8,546.76,234.98,546.76,268.51z"/>
	<path class="st1" d="M434.34,337.94c-31.44,6.73-52.13,19.36-63.69,27.89c-47.3,34.91-67.12,93.71-52.26,117.45
		c3.23,5.17,13.12,16.67,21.16,23.24c7.3,5.97,14.68,9.68,14.68,9.68c0.73,0.37,1.33,0.66,1.72,0.84L434.34,337.94z"/>
	<path class="st3" d="M561.75,224.99c-0.76,19.33-7.65,43.15-16.45,43.6c-10.56,0.54-9.51-33.44-35.79-45.05
		c-19.17-8.49-34.31,3.11-52.65-8.14c-14.88-9.13-15.14-23.04-20.86-22.7c-13.92,0.84-9.47,83.66-25.01,85.76
		c-10.94,1.48-32.55-36.76-28.33-74.08c0.95-8.34,2.65-22.85,14.16-36.63c17.33-20.79,45.64-25.85,57.15-27.91
		c14.26-2.55,51.19-8.53,80.02,13.22C563.75,175.5,562.35,210.65,561.75,224.99z"/>
	<path class="st4" d="M591.15,282.24"/>
	<polygon class="st5" points="511.88,427.49 362.94,412.45 373.05,376.73 	"/>
	<ellipse class="st2" cx="355.53" cy="464.97" rx="27.99" ry="37.48"/>
	<polygon class="st5" points="452.58,429.35 576.53,365.98 590.59,397.09 	"/>
	<path class="st6" d="M591.15,511.54c-5.98,1.5-11.97,3.02-17.95,4.54c-27.73,6.99-55.51,14-83.26,21.01
		c-2.74,0.71-5.46,1.39-8.2,2.08c-4.13-0.17-8.35-0.41-12.61-0.73c-2.84-0.19-5.7-0.45-8.61-0.73
		c-32.69-3.22-61.68-10.55-86.58-19.4c-5.51-1.95-10.8-3.97-15.88-6.04c-0.86-0.34-1.69-0.69-2.53-1.03
		c0.1-2.94,0.19-5.85,0.29-8.79c0.79-24.93,1.57-49.86,2.36-74.78c0.36-11.27,0.72-22.57,1.07-33.87c2.81,0.64,5.6,1.29,8.42,1.93
		c2.1,0.47,4.17,0.96,6.27,1.44c10.44,2.4,20.89,4.78,31.33,7.18c20.6,4.72,41.18,9.43,61.78,14.15c0.69-0.09,1.38-0.19,2.07-0.28
		c2.38-0.32,4.79-0.66,7.18-0.99c1.84-0.24,3.65-0.49,5.48-0.75c1.48-0.19,2.96-0.41,4.43-0.6c0.69-0.09,1.36-0.19,2.05-0.28
		c18.72-4.57,37.41-9.13,56.1-13.7c9.61-2.36,19.22-4.69,28.83-7.03c4.91-1.2,9.85-2.4,14.76-3.6c0.52-0.13,1.05-0.26,1.57-0.39
		c0.02,1.33,0.05,2.66,0.05,3.99c0.02,0.81,0.02,1.63,0.05,2.44c0.17,13.05,0.33,26.09,0.52,39.14c0.29,21.22,0.55,42.44,0.86,63.66
		c0,0.77,0,1.56,0.02,2.34C591.08,505.47,591.1,508.51,591.15,511.54z"/>
	<ellipse class="st2" cx="591.15" cy="469.42" rx="17.96" ry="33.03"/>
	<path class="st2" d="M509.3,360.09h-59.56c-6.81,0-12.33-5.52-12.33-12.33v-51.05c0-6.81,5.52-12.33,12.33-12.33h59.56
		c6.81,0,12.33,5.52,12.33,12.33v51.05C521.63,354.57,516.11,360.09,509.3,360.09z"/>
	<rect x="469.12" y="415.88" class="st7" width="20.82" height="123.29"/>
	<path d="M363.36,95.33C352,98,351,87,343.61,80.96c-2.7-2.36-5.57-4.72-8.15-6.81c-5.16-4.18-9.03-7.32-9.03-7.32
		c-0.88-0.71-1.6-1.45-2.17-2.22h-0.28c0.25,0.76,0.38,2.38,0.38,4.87c0,0,0,3.6,0,8.1C323,85,322,97,313,95c1-6,3-12,3.42-17.64
		c0.01-4.43,0.01-8.85,0.01-12.18s0-5.53,0-5.53h10.29c0,0,8.47,6.95,16.94,13.89c2.82,2.32,5.62,4.63,7.98,6.7
		C355,83,358,86,360,90c3-6,3-12,3.05-17.88c0-6.24,0-12.47,0-12.47h7.93c0,0,0,2.21,0,5.53s0,7.75-0.02,12.18
		C369,81,371,86,367.26,89.66C365.2,93.06,363.36,95.33,363.36,95.33z"/>
	<path d="M406.95,96.14C396,98,382,91,384.23,77.78c0.06-2.85,0.79-5.41,2.26-7.69s3.68-4.26,6.62-5.95
		c5.88-3.39,13.89-5.09,24.02-5.09c9.34,0,16.87,1.65,22.58,4.94c2.86,1.65,5,3.55,6.42,5.7C454,89,427,94,414.33,95.76
		C411.88,96,409.43,96.13,406.95,96.14z M416.57,62.81c-7.11,0-12.88,1.34-17.32,4.03c-2.22,1.34-3.88,2.89-4.99,4.66
		s-1.66,3.73-1.72,5.92C391,85,396,93,405,93c10,0,18-2,27-6c5-3,11-10,6.42-15.74c-1.04-1.81-2.6-3.35-4.67-4.63
		C429.6,64.08,423.87,62.81,416.57,62.81z"/>
	<path d="M530.27,95.16C520,93,510,99,500,94c6-9,13-17,12.23-28.82c0-3.32,0-5.53,0-5.53h34.36v3.75h-26.43l-1.06,11.82
		C527,75,536,75,544,75c-1,1-1,3-2,4c-8,1-17-2-24,1c-2,1-11,10-4,11c7,2,14,0,21.46,0.16L530.27,95.16z"/>
	<path d="M595.49,63.43c0,0-1.65-0.01-4.14-0.03c-7.43,0-22.3,0-22.3,0l-0.72,12.24C577,76,585,76,594,76c-1,1-1,4-2,4
		c-18-3-32,5-45,16c-1,0-3-2-5-1c8-4,14-10,17.83-17.7c1.06-4.38,1.29-8.8,1.29-12.12s0-5.53,0-5.53s19.33,0,28.99,0
		c3.22,0,5.37,0,5.37,0L595.49,63.43z"/>
	<path d="M652.36,59.87c-2.39,2.69-4.71,5.45-6.96,8.28c-3.9,6.69-9.15,12.7-14.4,18.76c-1.98,1.99-3.91,3.99-5.94,6.02
		C609,109,598,124,574,120c16-10,44-20,39.54-44.16c-1.14-3.05-3.09-6.02-6-8.85c-2.32-2.49-4.88-4.82-7.55-6.99
		c4.67-0.67,8.44,0.67,11.67,3.11c4,4.42,8.38,9.46,10.31,15.5c0.58,2.01,0.9,4.12,0.82,6.36c1.84-1.24,3.45-2.61,4.96-4.07
		c4.32-4.42,7.55-9.74,11.46-15.25c1.49-1.93,3.07-3.77,4.82-5.48L652.36,59.87z"/>
	<text transform="matrix(0.8285 0 0 1 447.5513 109.3438)" class="st8 st9">T</text>
</g>
</svg>
